<svg width="32" height="32" viewBox="0 0 32 32" fill="none" xmlns="http://www.w3.org/2000/svg">
<g clip-path="url(#clip0_6_30)">
<path d="M13.9127 0.020232C12.9914 0.0421347 12.3157 0.0745213 11.0768 0.150913C10.5038 0.185103 9.87829 0.235453 9.43782 0.279525C9.32725 0.291545 9.09596 0.313715 8.92503 0.329875C8.20707 0.400325 7.1411 0.53488 6.69275 0.611339C6.59807 0.627499 6.45933 0.649669 6.38108 0.661689C6.30462 0.671839 6.16775 0.695811 6.07928 0.712037C5.99088 0.728198 5.84198 0.756377 5.74757 0.77227C5.41553 0.82863 4.8506 0.943352 4.53085 1.01981C4.44218 1.04198 4.28334 1.08004 4.17878 1.10435C4.07415 1.12832 3.9798 1.15049 3.96778 1.15256C3.37828 1.29319 2.79306 1.577 2.34263 1.945C1.90416 2.30105 1.51216 2.87627 1.315 3.44748C1.28295 3.53596 1.25056 3.62644 1.24068 3.64861C1.2065 3.72507 1.0576 4.36853 0.950905 4.89573C0.935015 4.98414 0.906838 5.11482 0.89068 5.18734C0.874455 5.25959 0.852622 5.38634 0.838467 5.46881C0.826249 5.55121 0.810291 5.65191 0.800142 5.68997C0.769895 5.80483 0.647308 6.58912 0.568788 7.15832C0.492404 7.7095 0.442061 8.10989 0.397994 8.51602C0.375827 8.71502 0.35366 8.91014 0.34972 8.94847C0.343709 8.98653 0.325483 9.18172 0.307455 9.38098C0.291297 9.57998 0.267327 9.82338 0.255042 9.92408C0.212777 10.294 0.108151 11.9052 0.056071 13.0417C0.0158762 13.8842 -0.0102307 15.6885 0.00385745 16.6721C0.0179456 17.8989 0.0479252 18.9953 0.0761015 19.3774C0.0863167 19.5321 0.106348 19.8582 0.118366 20.1015C0.130385 20.3448 0.146542 20.6566 0.156691 20.7953C0.202895 21.4913 0.23915 21.9477 0.257111 22.0925C0.267327 22.1812 0.291297 22.4165 0.307455 22.6134C0.323613 22.8106 0.34765 23.046 0.357798 23.1364C0.369817 23.227 0.391985 23.422 0.407876 23.571C0.458219 24.0476 0.496544 24.3593 0.52866 24.5667C0.544818 24.6772 0.572995 24.8664 0.588886 24.989C0.647308 25.4313 0.715613 25.8617 0.789993 26.2562C0.806151 26.3446 0.832258 26.4936 0.850486 26.588C0.884671 26.7891 0.963125 27.1894 1.01948 27.4427C1.21244 28.3299 1.29697 28.5952 1.52418 29.0318C1.58648 29.1523 1.66687 29.2932 1.70312 29.3435C1.73724 29.3939 1.78759 29.4661 1.81369 29.5045C1.9284 29.6753 2.2563 30.0092 2.43731 30.1381C2.46729 30.16 2.52571 30.2022 2.56377 30.2325C2.60423 30.2646 2.64229 30.2888 2.65244 30.2888C2.66052 30.2888 2.68062 30.3029 2.69651 30.3191C2.77503 30.3955 3.32821 30.659 3.5653 30.7294C3.60964 30.7435 3.66392 30.7615 3.68609 30.7717C3.7385 30.7957 4.03395 30.87 4.39003 30.9506C4.54493 30.9869 4.70378 31.025 4.7419 31.0351C4.83444 31.0592 5.4176 31.1757 5.85814 31.2563C6.1114 31.3025 6.60435 31.381 6.91389 31.4254C7.03054 31.4412 7.17943 31.4634 7.24573 31.4754C7.48904 31.5177 8.49471 31.6346 9.12614 31.6948C9.35335 31.717 9.63291 31.7431 9.74949 31.755C9.93858 31.7751 10.1316 31.7913 11.0567 31.8576C11.1954 31.8677 11.5113 31.8858 11.7606 31.898C12.01 31.91 12.3579 31.928 12.535 31.9382C13.9669 32.0206 18.0615 32.0206 19.4732 31.9382C19.6503 31.9262 19.9982 31.91 20.2476 31.898C20.6759 31.878 20.8328 31.8678 21.5045 31.8174C22.3651 31.7512 23.6304 31.6283 24.0586 31.5681C24.1812 31.55 24.3925 31.5218 24.5312 31.5036C25.044 31.4374 25.748 31.3307 26.1501 31.2563C26.5906 31.1757 27.1738 31.0592 27.2664 31.0351C27.3045 31.025 27.4633 30.9869 27.6183 30.9506C27.9661 30.8721 28.2679 30.7957 28.3222 30.7717C28.389 30.7476 28.456 30.7241 28.5233 30.7012C28.6881 30.647 29.2353 30.3874 29.2814 30.3431C29.2955 30.329 29.3357 30.299 29.3699 30.2787C29.5269 30.1803 29.5991 30.124 29.7421 29.9951C29.903 29.8482 30.1263 29.607 30.1805 29.5246C30.1985 29.4964 30.2468 29.4281 30.2869 29.3738C30.3292 29.3175 30.3633 29.2671 30.3633 29.2591C30.3633 29.2509 30.3957 29.1946 30.4337 29.1343C30.4721 29.0741 30.5183 28.9854 30.5365 28.9371C30.5566 28.891 30.5766 28.8406 30.5848 28.8307C30.6228 28.7804 30.7637 28.38 30.8239 28.1528C30.9186 27.8009 31.0954 26.9701 31.1598 26.5778C31.176 26.4773 31.194 26.3829 31.2 26.3668C31.2183 26.3224 31.3289 25.6325 31.4292 24.9287C31.4514 24.7738 31.4736 24.6189 31.4796 24.5868C31.4958 24.4941 31.5681 23.8767 31.6004 23.5509C31.6163 23.39 31.6384 23.2048 31.6504 23.1385C31.6627 23.072 31.6846 22.855 31.7008 22.6557C31.717 22.4567 31.7391 22.2112 31.7491 22.1126C31.7611 22.0122 31.7793 21.7829 31.7913 21.5998C31.8033 21.4167 31.8215 21.1916 31.8315 21.0969C31.8437 21.0025 31.8656 20.6545 31.8818 20.3227C31.9 19.9907 31.9201 19.5824 31.9321 19.4176C32.0226 17.9552 32.0226 14.1176 31.9321 12.6092C31.9219 12.4381 31.904 12.1024 31.8919 11.865C31.8797 11.6276 31.8617 11.3138 31.8516 11.1709C31.8395 11.0262 31.8135 10.6701 31.7913 10.3766C31.7691 10.0829 31.7469 9.80722 31.7409 9.76314C31.7349 9.71874 31.717 9.52368 31.7008 9.33063C31.6846 9.13765 31.6666 8.95655 31.6606 8.92844C31.6546 8.90026 31.6324 8.71502 31.6103 8.51602C31.5582 8.03523 31.4937 7.50443 31.4796 7.44212C31.4736 7.41394 31.4514 7.25301 31.4292 7.08787C31.3307 6.33583 31.1479 5.28777 30.9908 4.57386C30.9687 4.47317 30.9327 4.31036 30.9105 4.2118C30.8542 3.95431 30.7877 3.69482 30.7658 3.64861C30.7556 3.62644 30.7376 3.57221 30.7235 3.52787C30.6792 3.37916 30.4559 2.88228 30.3996 2.80375C30.3915 2.79173 30.3274 2.69731 30.2587 2.59274C30.116 2.37751 29.7501 1.99535 29.5308 1.83442C29.0965 1.51463 28.6137 1.29734 27.9905 1.14448C27.883 1.11822 27.7757 1.09135 27.6686 1.06388C27.5942 1.04198 27.4453 1.00966 27.1255 0.943352C27.0349 0.92435 26.9444 0.904874 26.854 0.884923C26.4659 0.7905 25.2029 0.585229 24.3805 0.480656C24.2153 0.460557 24.0526 0.438387 24.0184 0.430574C23.958 0.418287 23.6664 0.388305 23.0733 0.329875C22.9081 0.313715 22.681 0.289675 22.5704 0.279525C22.4599 0.267506 22.2606 0.249476 22.1281 0.237256C21.9953 0.227373 21.7781 0.209076 21.6453 0.199193C21.1949 0.160863 19.944 0.0886109 19.2521 0.058294C17.9146 -6.87473e-05 15.445 -0.0180978 13.9127 0.020232ZM5.05171 13.6109C5.06373 13.6208 5.12215 13.6391 5.18031 13.6531C5.28907 13.6792 5.44191 13.7496 5.55635 13.826C5.64689 13.8863 5.86021 14.1156 5.90221 14.1962C5.92257 14.2364 5.94448 14.2726 5.95048 14.2786C5.95676 14.2847 5.97472 14.3248 5.99088 14.3691C6.00497 14.4132 6.02293 14.4597 6.03314 14.4696C6.05918 14.5079 6.0895 14.7471 6.0895 14.9242C6.0895 15.0972 6.06312 15.3003 6.029 15.3747C5.9205 15.6241 5.86809 15.7065 5.73142 15.8515C5.60462 15.9822 5.55248 16.0224 5.37954 16.1069C5.23866 16.1773 5.13804 16.2136 5.05772 16.2214C4.99329 16.2295 4.93693 16.2435 4.93092 16.2517C4.9169 16.2759 4.4805 16.2759 4.4805 16.2517C4.4805 16.2435 4.43016 16.2295 4.36573 16.2214C4.30343 16.2136 4.22518 16.1953 4.19099 16.1812C4.14739 16.1616 4.10312 16.1435 4.05826 16.127C4.01993 16.1129 3.98368 16.0967 3.97767 16.0907C3.97166 16.0827 3.94141 16.0647 3.90723 16.0485C3.79065 15.9903 3.54935 15.7226 3.47897 15.5758C3.44065 15.4973 3.40466 15.4209 3.39451 15.405C3.32614 15.2681 3.31412 14.6446 3.37828 14.4998C3.39658 14.4615 3.42262 14.3973 3.43671 14.3589C3.45079 14.3209 3.46695 14.2846 3.47296 14.2786C3.47897 14.2726 3.50301 14.2322 3.52518 14.1881C3.5635 14.1135 3.80267 13.8561 3.83685 13.8561C3.84486 13.8561 3.86316 13.842 3.87725 13.824C3.9153 13.7817 4.1104 13.6873 4.22912 13.6571C4.2854 13.6429 4.34777 13.6228 4.36993 13.6127C4.3921 13.6028 4.44632 13.5927 4.49045 13.5866C4.6091 13.5746 5.0256 13.5927 5.05171 13.6109ZM26.9646 16.0283H23.0631V14.6688L23.2804 14.6344C23.7611 14.5601 24.0607 14.5098 24.0787 14.4977C24.0908 14.4897 24.1893 14.4737 24.2999 14.4597C24.4104 14.4456 24.5111 14.4273 24.5211 14.4192C24.5333 14.4114 24.6277 14.3932 24.7323 14.3791C24.8369 14.3671 24.9736 14.3428 25.0341 14.3269C25.0944 14.3128 25.2211 14.2906 25.3155 14.2786C25.4102 14.2664 25.5046 14.2484 25.5267 14.2403C25.5489 14.2304 25.6493 14.2121 25.748 14.198C25.8486 14.186 25.961 14.168 25.9993 14.1558C26.0374 14.1458 26.1824 14.1177 26.3212 14.0955C26.46 14.0733 26.641 14.0434 26.7234 14.0292C26.8058 14.0131 26.8942 14.0011 26.9203 13.999L26.9646 13.9969V16.0283ZM10.3126 15.9097V17.1145H12.3237V18.9047H10.3108L10.3186 20.7693C10.3248 22.7786 10.3206 22.68 10.4295 22.9272C10.5119 23.1185 10.745 23.3135 10.9461 23.3618C10.9803 23.3699 11.0186 23.3858 11.0348 23.3981C11.0728 23.4281 11.8874 23.4281 11.9237 23.396C11.9396 23.384 12.0121 23.3678 12.0885 23.3597L12.2233 23.3456V25.1098L12.1689 25.1338C12.1188 25.1559 11.8874 25.1922 11.5697 25.2303C11.1173 25.2827 10.2925 25.2887 10.2443 25.2383C10.2322 25.2284 10.2002 25.2203 10.1699 25.2203C10.0914 25.2203 9.76565 25.1598 9.74141 25.1418C9.7294 25.1338 9.67518 25.1136 9.61883 25.1017C9.56461 25.0876 9.51033 25.0693 9.49811 25.0615C9.48816 25.0513 9.44202 25.0333 9.39769 25.0192C9.35335 25.0052 9.31316 24.9869 9.30715 24.9809C9.30114 24.9749 9.26488 24.9527 9.22656 24.9305C9.05964 24.8421 9.00956 24.8101 8.92089 24.7354C8.86874 24.6932 8.82047 24.6572 8.81032 24.6572C8.79023 24.6551 8.63739 24.4881 8.51687 24.3353C8.42433 24.2166 8.28739 23.9894 8.24119 23.8726C8.22503 23.8345 8.20707 23.7982 8.20106 23.7922C8.19298 23.7862 8.17288 23.7239 8.15278 23.6514C8.13456 23.5791 8.11052 23.5026 8.10037 23.4805C8.09049 23.4583 8.06618 23.3678 8.05029 23.2794C8.03325 23.1953 8.01509 23.1115 7.99581 23.0279C7.98172 22.9677 7.97177 22.2595 7.96577 20.9201L7.95775 18.9047H6.79317V17.1145H7.95982V15.087L8.09643 15.073C8.17081 15.0651 8.24119 15.051 8.25134 15.0429C8.26335 15.0348 8.36197 15.0169 8.47254 15.0027C8.58311 14.9887 8.6838 14.9683 8.69375 14.9605C8.70576 14.9524 8.83249 14.9302 8.97538 14.9122C9.12013 14.8919 9.24692 14.87 9.25681 14.8619C9.26882 14.8538 9.33533 14.8397 9.40757 14.8337C9.50209 14.8224 9.59607 14.807 9.68927 14.7876C9.90446 14.7432 10.2805 14.6847 10.2985 14.6949C10.3066 14.6989 10.3126 15.2461 10.3126 15.9097ZM16.9795 16.9233C17.261 16.9395 17.5789 16.9758 17.6029 16.9938C17.6149 17.0018 17.6632 17.016 17.7135 17.022C17.8282 17.0402 18.1079 17.1226 18.2766 17.1909C18.4175 17.2473 18.7312 17.4041 18.7794 17.4445C18.7957 17.4565 18.8316 17.4805 18.8598 17.4927C18.8879 17.5068 18.9767 17.577 19.0549 17.6457C19.1334 17.716 19.2059 17.7763 19.2158 17.7802C19.2461 17.7943 19.6039 18.2289 19.6039 18.2529C19.6039 18.2589 19.6222 18.2913 19.6444 18.3212C19.6866 18.3817 19.8655 18.7297 19.8655 18.7519C19.8655 18.7597 19.8817 18.804 19.9036 18.8502C19.9236 18.8967 19.9479 18.9671 19.956 19.0052C19.964 19.0435 19.9782 19.0837 19.986 19.0956C19.994 19.1059 20.0123 19.17 20.0264 19.2365C20.0384 19.3028 20.0546 19.3714 20.0606 19.3873C20.0687 19.4035 20.0866 19.4898 20.1029 19.5785C20.1269 19.7113 20.1328 20.2121 20.1409 22.4285L20.149 25.1196H17.955L17.953 24.8823C17.9508 24.7537 17.9448 24.5667 17.9367 24.468L17.9247 24.2871L17.8664 24.3674C17.774 24.4903 17.4702 24.7797 17.3496 24.8601C17.086 25.0333 17.0158 25.0753 16.9433 25.0996C16.899 25.1116 16.8408 25.1359 16.8126 25.1517C16.7824 25.1658 16.7081 25.1901 16.6476 25.2021C16.5873 25.2161 16.5271 25.2344 16.5169 25.2422C16.4144 25.3187 15.1473 25.3168 15.0487 25.2404C15.0388 25.2324 14.9663 25.2144 14.8878 25.2002C14.8114 25.1862 14.7209 25.164 14.6868 25.1478C14.6547 25.1338 14.5681 25.0975 14.4979 25.0693C14.417 25.0341 14.3378 24.9952 14.2606 24.9527C14.2071 24.9197 14.1528 24.8882 14.0975 24.8583C14.0131 24.8119 13.9849 24.7858 13.7557 24.5564C13.5204 24.3212 13.4901 24.2891 13.4901 24.267C13.4901 24.2589 13.464 24.2145 13.4341 24.1683C13.4017 24.1222 13.3555 24.0377 13.3312 23.9832C13.3073 23.9271 13.2749 23.8606 13.2609 23.8324C13.245 23.8042 13.2228 23.7319 13.2087 23.6714C13.1946 23.6111 13.1767 23.5509 13.1685 23.5408C13.1464 23.5126 13.108 23.2269 13.108 23.1022C13.108 23.0442 13.0981 22.9857 13.0861 22.9737C13.0619 22.9494 13.0678 22.8691 13.1302 22.3841C13.1422 22.2897 13.1604 22.2032 13.1685 22.1932C13.1766 22.1812 13.1946 22.1288 13.2066 22.0746C13.2327 21.9699 13.2872 21.8332 13.3435 21.7305C13.3615 21.6963 13.3856 21.6501 13.3978 21.6259C13.4098 21.5998 13.426 21.5797 13.4359 21.5797C13.4439 21.5797 13.4499 21.5677 13.4499 21.5536C13.4499 21.5315 13.6712 21.2438 13.7095 21.2177C13.7175 21.2117 13.7316 21.1916 13.7377 21.1715C13.7457 21.1493 13.7697 21.1293 13.7919 21.1233C13.814 21.1172 13.8321 21.105 13.8321 21.0969C13.8321 21.0768 14.17 20.8113 14.2846 20.745C14.3669 20.6947 14.5522 20.6003 14.8216 20.4714C14.8599 20.4513 15.2357 20.3307 15.4009 20.2844C15.4611 20.2664 15.5798 20.2421 15.6622 20.2301C15.7446 20.216 15.8231 20.1999 15.8333 20.1921C15.8453 20.1839 15.9658 20.1657 16.1048 20.1537C16.2436 20.1416 16.4144 20.1216 16.4869 20.1114C16.7725 20.0692 17.7758 20.0773 17.8825 20.1216C17.9188 20.1375 17.9206 20.1296 17.9066 19.9585C17.8987 19.86 17.8846 19.7754 17.8765 19.7694C17.8664 19.7634 17.8544 19.7254 17.8463 19.685C17.8322 19.6106 17.7557 19.4478 17.6835 19.337C17.6371 19.2668 17.442 19.0654 17.4198 19.0654C17.412 19.0654 17.3778 19.0454 17.3434 19.0193C17.255 18.9548 17.1123 18.8906 17.0257 18.8745C16.9835 18.8664 16.9493 18.8523 16.9493 18.8442C16.9493 18.7558 15.6502 18.7417 15.26 18.8283C15.2097 18.8382 15.0931 18.8603 14.9986 18.8766C14.904 18.8924 14.8096 18.9146 14.7874 18.9248C14.7652 18.9347 14.693 18.953 14.6265 18.965C14.5602 18.977 14.4877 18.9952 14.4656 19.0052C14.4434 19.0153 14.3631 19.0375 14.2866 19.0555C14.2102 19.0735 14.1377 19.0936 14.1257 19.1037C14.1137 19.1119 14.0595 19.1319 14.0031 19.146C13.9489 19.1601 13.8926 19.1802 13.8824 19.1883C13.8704 19.1963 13.8161 19.2143 13.7616 19.2285C13.7055 19.2405 13.627 19.2686 13.5869 19.2887C13.5446 19.3109 13.5063 19.327 13.5003 19.327C13.4943 19.327 13.4901 18.9065 13.4901 18.3938C13.4901 17.6676 13.4964 17.4565 13.5164 17.4403C13.5305 17.4283 13.5869 17.4083 13.6411 17.3942C13.6975 17.3822 13.7517 17.3639 13.7616 17.3558C13.7739 17.3478 13.8401 17.3238 13.9127 17.3055C13.9849 17.2854 14.0532 17.2634 14.0634 17.2554C14.0754 17.2452 14.1377 17.229 14.2022 17.2152C14.2687 17.2012 14.337 17.1829 14.3529 17.1729C14.3712 17.1649 14.4535 17.1427 14.536 17.1247C14.6001 17.1122 14.6638 17.0981 14.7272 17.0825C14.7491 17.0762 14.8618 17.0582 14.9784 17.042C15.0952 17.0261 15.2178 17.0039 15.2498 16.9938C15.3667 16.9577 16.4204 16.8913 16.6577 16.9054C16.724 16.9092 16.869 16.9173 16.9795 16.9233ZM5.88812 25.1196H3.53532V17.1145H5.88812V25.1196ZM23.6664 19.6085C23.6664 21.99 23.6765 22.4507 23.7248 22.5151C23.7347 22.525 23.747 22.5652 23.755 22.6036C23.7832 22.7543 23.9139 22.9737 24.0625 23.1224C24.141 23.2029 24.2294 23.2733 24.2576 23.2812C24.2879 23.2875 24.31 23.2995 24.31 23.3076C24.31 23.3154 24.3805 23.3436 24.4668 23.3717C24.5957 23.4122 24.664 23.42 24.8651 23.42C25.006 23.42 25.1285 23.4101 25.1567 23.3981C25.1827 23.384 25.2451 23.3639 25.2954 23.3498C25.3457 23.3358 25.4363 23.2935 25.4965 23.253C25.6091 23.1808 25.8183 22.9878 25.8183 22.9554C25.8183 22.9455 25.8465 22.9012 25.8786 22.8589C25.9127 22.8146 25.9391 22.7705 25.9391 22.7585C25.9391 22.7462 25.9571 22.704 25.9772 22.6638C25.9993 22.6236 26.0234 22.5553 26.0315 22.513C26.0375 22.4687 26.0515 22.4246 26.0617 22.4144C26.112 22.35 26.1201 21.9439 26.1201 19.5845V17.1145H28.4729V25.1197H27.3588C26.4882 25.1197 26.2386 25.1137 26.2266 25.0936C26.2185 25.0816 26.2086 24.8904 26.2045 24.6712C26.2005 24.454 26.1904 24.275 26.1825 24.275C26.1745 24.275 26.1502 24.2991 26.1262 24.3293C26.0135 24.4822 25.8364 24.6551 25.5589 24.8844C25.5187 24.9164 25.4363 24.9608 25.2553 25.0493C25.1729 25.0894 25.0824 25.1358 25.0542 25.1499C25.0261 25.164 24.9497 25.1861 24.8831 25.2002C24.8169 25.2143 24.7584 25.2323 24.7524 25.2404C24.7324 25.2705 24.3764 25.3007 24.0245 25.3007C23.6787 25.3007 23.397 25.2766 23.3146 25.2422C23.2924 25.2324 23.216 25.2081 23.1435 25.1901C23.0713 25.1721 23.0048 25.1478 22.9927 25.1397C22.9829 25.1317 22.9346 25.1116 22.8882 25.0975C22.8399 25.0854 22.8019 25.0675 22.8019 25.0594C22.8019 25.0513 22.7656 25.0334 22.7213 25.0192C22.6772 25.0052 22.6409 24.9869 22.6409 24.9788C22.6409 24.971 22.6187 24.9548 22.5927 24.9427C22.4197 24.8643 22.0275 24.4962 21.8626 24.2589C21.7619 24.1141 21.607 23.8243 21.575 23.7179C21.563 23.6756 21.5387 23.6133 21.5246 23.581C21.5105 23.5468 21.4866 23.4745 21.4743 23.42C21.4623 23.3639 21.4442 23.3054 21.4341 23.2854C21.4242 23.2671 21.4059 23.1727 21.394 23.0741C21.3819 22.9776 21.3598 22.879 21.3478 22.8568C21.3295 22.8268 21.3215 22.1087 21.3175 19.9645L21.3115 17.1145H23.6664L23.6664 19.6085Z" fill="#FA7202"/>
<path d="M23.6664 19.6085C23.6664 21.99 23.6765 22.4507 23.7248 22.5151C23.7347 22.525 23.747 22.5652 23.755 22.6036C23.7832 22.7543 23.9139 22.9737 24.0625 23.1224C24.141 23.2029 24.2294 23.2733 24.2576 23.2812C24.2879 23.2875 24.31 23.2995 24.31 23.3076C24.31 23.3154 24.3805 23.3436 24.4668 23.3717C24.5957 23.4122 24.664 23.42 24.8651 23.42C25.006 23.42 25.1285 23.4101 25.1567 23.3981C25.1827 23.384 25.2451 23.3639 25.2954 23.3498C25.3457 23.3358 25.4363 23.2935 25.4965 23.253C25.6091 23.1808 25.8183 22.9878 25.8183 22.9554C25.8183 22.9455 25.8465 22.9012 25.8786 22.8589C25.9127 22.8146 25.9391 22.7705 25.9391 22.7585C25.9391 22.7462 25.9571 22.704 25.9772 22.6638C25.9993 22.6236 26.0234 22.5553 26.0315 22.513C26.0375 22.4687 26.0515 22.4246 26.0617 22.4144C26.112 22.35 26.1201 21.9439 26.1201 19.5845V17.1145H28.4729V25.1197H27.3588C26.4882 25.1197 26.2386 25.1137 26.2266 25.0936C26.2185 25.0816 26.2086 24.8904 26.2045 24.6712C26.2005 24.454 26.1904 24.275 26.1825 24.275C26.1745 24.275 26.1502 24.2991 26.1262 24.3293C26.0135 24.4822 25.8364 24.6551 25.5589 24.8844C25.5187 24.9164 25.4363 24.9608 25.2553 25.0493C25.1729 25.0894 25.0824 25.1358 25.0542 25.1499C25.0261 25.164 24.9497 25.1861 24.8831 25.2002C24.8169 25.2143 24.7584 25.2323 24.7524 25.2404C24.7324 25.2705 24.3764 25.3007 24.0245 25.3007C23.6787 25.3007 23.397 25.2766 23.3146 25.2422C23.2924 25.2324 23.216 25.2081 23.1435 25.1901C23.0713 25.1721 23.0048 25.1478 22.9927 25.1397C22.9829 25.1317 22.9346 25.1116 22.8882 25.0975C22.8399 25.0854 22.8019 25.0675 22.8019 25.0594C22.8019 25.0513 22.7656 25.0334 22.7213 25.0192C22.6772 25.0052 22.6409 24.9869 22.6409 24.9788C22.6409 24.971 22.6187 24.9548 22.5927 24.9427C22.4197 24.8643 22.0275 24.4962 21.8626 24.2589C21.7619 24.1141 21.607 23.8243 21.575 23.7179C21.563 23.6756 21.5387 23.6133 21.5246 23.581C21.5105 23.5468 21.4866 23.4745 21.4743 23.42C21.4623 23.3639 21.4442 23.3054 21.4341 23.2854C21.4242 23.2671 21.4059 23.1727 21.394 23.0741C21.3819 22.9776 21.3598 22.879 21.3478 22.8568C21.3295 22.8268 21.3215 22.1087 21.3175 19.9645L21.3115 17.1145H23.6664L23.6664 19.6085Z" fill="white"/>
<path d="M16.9795 16.9233C17.261 16.9395 17.5789 16.9758 17.6029 16.9938C17.6149 17.0018 17.6632 17.016 17.7135 17.022C17.8282 17.0402 18.1079 17.1226 18.2766 17.1909C18.4175 17.2473 18.7312 17.4041 18.7794 17.4445C18.7957 17.4565 18.8316 17.4805 18.8598 17.4927C18.8879 17.5068 18.9767 17.577 19.0549 17.6457C19.1334 17.716 19.2059 17.7763 19.2158 17.7802C19.2461 17.7943 19.6039 18.2289 19.6039 18.2529C19.6039 18.2589 19.6222 18.2913 19.6444 18.3212C19.6866 18.3817 19.8655 18.7297 19.8655 18.7519C19.8655 18.7597 19.8817 18.804 19.9036 18.8502C19.9236 18.8967 19.9479 18.9671 19.956 19.0052C19.964 19.0435 19.9782 19.0837 19.986 19.0956C19.994 19.1059 20.0123 19.17 20.0264 19.2365C20.0384 19.3028 20.0546 19.3714 20.0606 19.3873C20.0687 19.4035 20.0866 19.4898 20.1029 19.5785C20.1269 19.7113 20.1328 20.2121 20.1409 22.4285L20.149 25.1196H17.955L17.953 24.8823C17.9508 24.7537 17.9448 24.5667 17.9367 24.468L17.9247 24.2871L17.8664 24.3674C17.774 24.4903 17.4702 24.7797 17.3496 24.8601C17.086 25.0333 17.0158 25.0753 16.9433 25.0996C16.899 25.1116 16.8408 25.1359 16.8126 25.1517C16.7824 25.1658 16.7081 25.1901 16.6476 25.2021C16.5873 25.2161 16.5271 25.2344 16.5169 25.2422C16.4144 25.3187 15.1473 25.3168 15.0487 25.2404C15.0388 25.2324 14.9663 25.2144 14.8878 25.2002C14.8114 25.1862 14.7209 25.164 14.6868 25.1478C14.6547 25.1338 14.5681 25.0975 14.4979 25.0693C14.417 25.0341 14.3378 24.9952 14.2606 24.9527C14.2071 24.9197 14.1528 24.8882 14.0975 24.8583C14.0131 24.8119 13.9849 24.7858 13.7557 24.5564C13.5204 24.3212 13.4901 24.2891 13.4901 24.267C13.4901 24.2589 13.464 24.2145 13.4341 24.1683C13.4017 24.1222 13.3555 24.0377 13.3312 23.9832C13.3073 23.9271 13.2749 23.8606 13.2609 23.8324C13.245 23.8042 13.2228 23.7319 13.2087 23.6714C13.1946 23.6111 13.1767 23.5509 13.1685 23.5408C13.1464 23.5126 13.108 23.2269 13.108 23.1022C13.108 23.0442 13.0981 22.9857 13.0861 22.9737C13.0619 22.9494 13.0678 22.8691 13.1302 22.3841C13.1422 22.2897 13.1604 22.2032 13.1685 22.1932C13.1766 22.1812 13.1946 22.1288 13.2066 22.0746C13.2327 21.9699 13.2872 21.8332 13.3435 21.7305C13.3615 21.6963 13.3856 21.6501 13.3978 21.6259C13.4098 21.5998 13.426 21.5797 13.4359 21.5797C13.4439 21.5797 13.4499 21.5677 13.4499 21.5536C13.4499 21.5315 13.6712 21.2438 13.7095 21.2177C13.7175 21.2117 13.7316 21.1916 13.7377 21.1715C13.7457 21.1493 13.7697 21.1293 13.7919 21.1233C13.814 21.1172 13.8321 21.105 13.8321 21.0969C13.8321 21.0768 14.17 20.8113 14.2846 20.745C14.3669 20.6947 14.5522 20.6003 14.8216 20.4714C14.8599 20.4513 15.2357 20.3307 15.4009 20.2844C15.4611 20.2664 15.5798 20.2421 15.6622 20.2301C15.7446 20.216 15.8231 20.1999 15.8333 20.1921C15.8453 20.1839 15.9658 20.1657 16.1048 20.1537C16.2436 20.1416 16.4144 20.1216 16.4869 20.1114C16.7725 20.0692 17.7758 20.0773 17.8825 20.1216C17.9188 20.1375 17.9206 20.1296 17.9066 19.9585C17.8987 19.86 17.8846 19.7754 17.8765 19.7694C17.8664 19.7634 17.8544 19.7254 17.8463 19.685C17.8322 19.6106 17.7557 19.4478 17.6835 19.337C17.6371 19.2668 17.442 19.0654 17.4198 19.0654C17.412 19.0654 17.3778 19.0454 17.3434 19.0193C17.255 18.9548 17.1123 18.8906 17.0257 18.8745C16.9835 18.8664 16.9493 18.8523 16.9493 18.8442C16.9493 18.7558 15.6502 18.7417 15.26 18.8283C15.2097 18.8382 15.0931 18.8603 14.9986 18.8766C14.904 18.8924 14.8096 18.9146 14.7874 18.9248C14.7652 18.9347 14.693 18.953 14.6265 18.965C14.5602 18.977 14.4877 18.9952 14.4656 19.0052C14.4434 19.0153 14.3631 19.0375 14.2866 19.0555C14.2102 19.0735 14.1377 19.0936 14.1257 19.1037C14.1137 19.1119 14.0595 19.1319 14.0031 19.146C13.9489 19.1601 13.8926 19.1802 13.8824 19.1883C13.8704 19.1963 13.8161 19.2143 13.7616 19.2285C13.7055 19.2405 13.627 19.2686 13.5869 19.2887C13.5446 19.3109 13.5063 19.327 13.5003 19.327C13.4943 19.327 13.4901 18.9065 13.4901 18.3938C13.4901 17.6676 13.4964 17.4565 13.5164 17.4403C13.5305 17.4283 13.5869 17.4083 13.6411 17.3942C13.6975 17.3822 13.7517 17.3639 13.7616 17.3558C13.7739 17.3478 13.8401 17.3238 13.9127 17.3055C13.9849 17.2854 14.0532 17.2634 14.0634 17.2554C14.0754 17.2452 14.1377 17.229 14.2022 17.2152C14.2687 17.2012 14.337 17.1829 14.3529 17.1729C14.3712 17.1649 14.4535 17.1427 14.536 17.1247C14.6001 17.1122 14.6638 17.0981 14.7272 17.0825C14.7491 17.0762 14.8618 17.0582 14.9784 17.042C15.0952 17.0261 15.2178 17.0039 15.2498 16.9938C15.3667 16.9577 16.4204 16.8913 16.6577 16.9054C16.724 16.9092 16.869 16.9173 16.9795 16.9233Z" fill="white"/>
<path d="M10.3126 15.9097V17.1145H12.3237V18.9047H10.3108L10.3186 20.7693C10.3248 22.7786 10.3206 22.68 10.4295 22.9272C10.5119 23.1185 10.745 23.3135 10.9461 23.3618C10.9803 23.3699 11.0186 23.3858 11.0348 23.3981C11.0728 23.4281 11.8874 23.4281 11.9237 23.396C11.9396 23.384 12.0121 23.3678 12.0885 23.3597L12.2233 23.3456V25.1098L12.1689 25.1338C12.1188 25.1559 11.8874 25.1922 11.5697 25.2303C11.1173 25.2827 10.2925 25.2887 10.2443 25.2383C10.2322 25.2284 10.2002 25.2203 10.1699 25.2203C10.0914 25.2203 9.76565 25.1598 9.74141 25.1418C9.7294 25.1338 9.67518 25.1136 9.61883 25.1017C9.56461 25.0876 9.51033 25.0693 9.49811 25.0615C9.48816 25.0513 9.44202 25.0333 9.39769 25.0192C9.35335 25.0052 9.31316 24.9869 9.30715 24.9809C9.30114 24.9749 9.26488 24.9527 9.22656 24.9305C9.05964 24.8421 9.00956 24.8101 8.92089 24.7354C8.86874 24.6932 8.82047 24.6572 8.81032 24.6572C8.79023 24.6551 8.63739 24.4881 8.51687 24.3353C8.42433 24.2166 8.28739 23.9894 8.24119 23.8726C8.22503 23.8345 8.20707 23.7982 8.20106 23.7922C8.19298 23.7862 8.17288 23.7239 8.15278 23.6514C8.13456 23.5791 8.11052 23.5026 8.10037 23.4805C8.09049 23.4583 8.06618 23.3678 8.05029 23.2794C8.03325 23.1953 8.01509 23.1115 7.99581 23.0279C7.98172 22.9677 7.97177 22.2595 7.96577 20.9201L7.95775 18.9047H6.79317V17.1145H7.95982V15.087L8.09643 15.073C8.17081 15.0651 8.24119 15.051 8.25134 15.0429C8.26335 15.0348 8.36197 15.0169 8.47254 15.0027C8.58311 14.9887 8.6838 14.9683 8.69375 14.9605C8.70576 14.9524 8.83249 14.9302 8.97538 14.9122C9.12013 14.8919 9.24692 14.87 9.25681 14.8619C9.26882 14.8538 9.33533 14.8397 9.40757 14.8337C9.50209 14.8224 9.59607 14.807 9.68927 14.7876C9.90446 14.7432 10.2805 14.6847 10.2985 14.6949C10.3066 14.6989 10.3126 15.2461 10.3126 15.9097Z" fill="white"/>
<path d="M5.88812 25.1196H3.53532V17.1145H5.88812V25.1196Z" fill="white"/>
<path d="M5.05171 13.6109C5.06373 13.6208 5.12215 13.6391 5.18031 13.6531C5.28907 13.6792 5.44191 13.7496 5.55635 13.826C5.64689 13.8863 5.86021 14.1156 5.90221 14.1962C5.92257 14.2364 5.94448 14.2726 5.95048 14.2786C5.95676 14.2847 5.97472 14.3248 5.99088 14.3691C6.00497 14.4132 6.02293 14.4597 6.03314 14.4696C6.05918 14.5079 6.0895 14.7471 6.0895 14.9242C6.0895 15.0972 6.06312 15.3003 6.029 15.3747C5.9205 15.6241 5.86809 15.7065 5.73142 15.8515C5.60462 15.9822 5.55248 16.0224 5.37954 16.1069C5.23866 16.1773 5.13804 16.2136 5.05772 16.2214C4.99329 16.2295 4.93693 16.2435 4.93092 16.2517C4.9169 16.2759 4.4805 16.2759 4.4805 16.2517C4.4805 16.2435 4.43016 16.2295 4.36573 16.2214C4.30343 16.2136 4.22518 16.1953 4.19099 16.1812C4.14739 16.1616 4.10312 16.1435 4.05826 16.127C4.01993 16.1129 3.98368 16.0967 3.97767 16.0907C3.97166 16.0827 3.94141 16.0647 3.90723 16.0485C3.79065 15.9903 3.54935 15.7226 3.47897 15.5758C3.44065 15.4973 3.40466 15.4209 3.39451 15.405C3.32614 15.2681 3.31412 14.6446 3.37828 14.4998C3.39658 14.4615 3.42262 14.3973 3.43671 14.3589C3.45079 14.3209 3.46695 14.2846 3.47296 14.2786C3.47897 14.2726 3.50301 14.2322 3.52518 14.1881C3.5635 14.1135 3.80267 13.8561 3.83685 13.8561C3.84486 13.8561 3.86316 13.842 3.87725 13.824C3.9153 13.7817 4.1104 13.6873 4.22912 13.6571C4.2854 13.6429 4.34777 13.6228 4.36993 13.6127C4.3921 13.6028 4.44632 13.5927 4.49045 13.5866C4.6091 13.5746 5.0256 13.5927 5.05171 13.6109Z" fill="white"/>
<path d="M26.9646 16.0283H23.0631V14.6688L23.2804 14.6344C23.7611 14.5601 24.0607 14.5098 24.0787 14.4977C24.0908 14.4897 24.1893 14.4737 24.2999 14.4597C24.4104 14.4456 24.5111 14.4273 24.5211 14.4192C24.5333 14.4114 24.6277 14.3932 24.7323 14.3791C24.8369 14.3671 24.9736 14.3428 25.0341 14.3269C25.0944 14.3128 25.2211 14.2906 25.3155 14.2786C25.4102 14.2664 25.5046 14.2484 25.5267 14.2403C25.5489 14.2304 25.6493 14.2121 25.748 14.198C25.8486 14.186 25.961 14.168 25.9993 14.1558C26.0374 14.1458 26.1824 14.1177 26.3212 14.0955C26.46 14.0733 26.641 14.0434 26.7234 14.0292C26.8058 14.0131 26.8942 14.0011 26.9203 13.999L26.9646 13.9969V16.0283Z" fill="white"/>
<path d="M16.7179 21.5617C16.6197 21.5717 16.519 21.5878 16.4968 21.5978C16.4746 21.61 16.4024 21.628 16.3359 21.642C16.2717 21.6541 16.1851 21.6783 16.1449 21.6963C15.8431 21.827 15.6964 21.9136 15.596 22.0182C15.4994 22.1189 15.4027 22.3059 15.3868 22.4225C15.3826 22.4627 15.3685 22.5151 15.3565 22.537C15.3344 22.5835 15.3424 22.7262 15.3787 22.9131C15.4188 23.1163 15.5798 23.3639 15.7224 23.4383C15.9759 23.5689 16.0242 23.589 16.1651 23.6112C16.4183 23.6493 16.9011 23.6274 17.0057 23.571C17.0237 23.5609 17.0983 23.5267 17.1705 23.4946C17.243 23.4604 17.3374 23.4059 17.3818 23.3717C17.4261 23.3376 17.4762 23.2974 17.4944 23.2833C17.6089 23.1969 17.8202 22.8469 17.8483 22.7021C17.8544 22.6659 17.8705 22.6236 17.8825 22.6074C17.8966 22.5894 17.9066 22.4042 17.9107 22.0724L17.9187 21.5656L17.81 21.5536C17.6631 21.5354 16.9394 21.5416 16.7179 21.5617Z" fill="#FA7202"/>
</g>
<defs>
<clipPath id="clip0_6_30">
<rect width="32" height="32" fill="white"/>
</clipPath>
</defs>
</svg>
